<?xml version="1.0" standalone="no"?>
<!DOCTYPE svg PUBLIC "-//W3C//DTD SVG 20010904//EN"
 "http://www.w3.org/TR/2001/REC-SVG-20010904/DTD/svg10.dtd">
<svg version="1.0" xmlns="http://www.w3.org/2000/svg"
 width="501.000000pt" height="501.000000pt" viewBox="0 0 501.000000 501.000000"
 preserveAspectRatio="xMidYMid meet">
<metadata>
Created by potrace 1.14, written by Peter Selinger 2001-2017
</metadata>
<g transform="translate(0.000000,501.000000) scale(0.100000,-0.100000)"
fill="#000000" stroke="none">
<path d="M571 4999 c-100 -19 -213 -71 -301 -137 -124 -93 -229 -262 -257
-413 -10 -56 -11 -3818 0 -3882 15 -90 75 -222 136 -297 98 -122 218 -202 369
-248 53 -16 189 -17 1962 -19 2018 -2 1962 -4 2075 42 219 88 371 256 433 478
16 58 17 200 17 1967 0 1048 -3 1925 -7 1950 -24 147 -122 310 -249 415 -75
62 -165 106 -275 134 -78 20 -100 21 -1969 20 -1039 -1 -1910 -5 -1934 -10z
m1654 -1655 c55 -79 106 -152 113 -162 10 -13 170 -240 262 -372 6 -8 58 -82
116 -165 57 -82 113 -160 123 -173 18 -22 18 -9 19 480 0 277 1 511 1 521 1
16 23 17 316 17 l315 0 0 -980 0 -980 -304 0 -303 0 -174 251 c-96 137 -181
259 -189 269 -8 10 -91 129 -185 264 -93 135 -173 246 -176 246 -4 0 -7 -228
-7 -507 -1 -280 -1 -511 -1 -515 -1 -5 -143 -8 -316 -8 l-315 0 0 980 0 980
303 0 302 -1 100 -145z"/>
</g>
</svg>
