<svg width="81" height="16" viewBox="0 0 81 16" fill="none" xmlns="http://www.w3.org/2000/svg">
<path d="M1.84428 0.273926V13.8131H8.99028V15.0039H0.530273V0.273926H1.84428ZM12.3384 15.0039H11.0244V0.273926H12.3384V15.0039ZM23.3247 7.36411C24.2967 7.65725 25.0047 8.12138 25.4487 8.7565C25.8927 9.37941 26.1147 10.1184 26.1147 10.9733C26.1147 12.1825 25.7127 13.1535 24.9087 13.8864C24.1167 14.6314 22.9227 15.0039 21.3267 15.0039H15.2607V0.273926H20.6247C22.2207 0.273926 23.4147 0.634237 24.2067 1.35486C25.0107 2.07548 25.4127 3.02206 25.4127 4.1946C25.4127 4.89079 25.2447 5.51981 24.9087 6.08165C24.5727 6.63128 24.0447 7.05876 23.3247 7.36411ZM16.5747 1.46478V6.94273H20.6067C21.7947 6.94273 22.6767 6.69845 23.2527 6.2099C23.8407 5.70912 24.1347 5.03736 24.1347 4.1946C24.1347 3.35184 23.8407 2.68618 23.2527 2.19762C22.6767 1.70906 21.7947 1.46478 20.6067 1.46478H16.5747ZM21.3087 13.8131C22.4967 13.8131 23.3787 13.5566 23.9547 13.0436C24.5427 12.5306 24.8367 11.8344 24.8367 10.955C24.8367 10.0878 24.5427 9.39773 23.9547 8.88475C23.3667 8.35955 22.4847 8.09695 21.3087 8.09695H16.5747V13.8131H21.3087ZM39.2426 15.0039H37.7666L34.3286 8.70154C34.2086 8.71375 34.0286 8.71986 33.7886 8.71986H29.8286V15.0039H28.5146V0.273926H33.7886C35.4806 0.273926 36.7586 0.646451 37.6226 1.3915C38.4986 2.12434 38.9366 3.15641 38.9366 4.48773C38.9366 5.57477 38.6546 6.46639 38.0906 7.16258C37.5386 7.84656 36.7106 8.30458 35.6066 8.53665L39.2426 15.0039ZM33.6626 7.51068C34.9946 7.51068 35.9846 7.2664 36.6326 6.77784C37.2926 6.27707 37.6226 5.5137 37.6226 4.48773C37.6226 2.47243 36.3026 1.46478 33.6626 1.46478H29.8286V7.51068H33.6626ZM53.1346 15.0039H51.7846L49.9486 10.1306H43.6306L41.8126 15.0039H40.4446L46.0066 0.273926H47.5906L53.1346 15.0039ZM46.7986 1.68463L44.0806 8.92139H49.4986L46.7986 1.68463ZM65.8032 15.0039H64.3272L60.8892 8.70154C60.7692 8.71375 60.5892 8.71986 60.3492 8.71986H56.3892V15.0039H55.0752V0.273926H60.3492C62.0412 0.273926 63.3192 0.646451 64.1832 1.3915C65.0592 2.12434 65.4972 3.15641 65.4972 4.48773C65.4972 5.57477 65.2152 6.46639 64.6512 7.16258C64.0992 7.84656 63.2712 8.30458 62.1672 8.53665L65.8032 15.0039ZM60.2232 7.51068C61.5552 7.51068 62.5452 7.2664 63.1932 6.77784C63.8532 6.27707 64.1832 5.5137 64.1832 4.48773C64.1832 2.47243 62.8632 1.46478 60.2232 1.46478H56.3892V7.51068H60.2232ZM76.2426 0.273926H77.7186L72.4446 9.21452V15.0039H71.1306V9.21452L65.8386 0.273926H67.3146L71.7786 7.91374L76.2426 0.273926Z" fill="url(#paint0_linear_225_8)"/>
<circle cx="79.2188" cy="13.5039" r="1.5" fill="#03C75A"/>
<defs>
<linearGradient id="paint0_linear_225_8" x1="-0.999992" y1="8.13766" x2="78" y2="8.13766" gradientUnits="userSpaceOnUse">
<stop stop-color="#3DB1ED"/>
<stop offset="1" stop-color="#03C75A"/>
</linearGradient>
</defs>
</svg>
