<svg width="78" height="15" viewBox="0 0 78 15" fill="none" xmlns="http://www.w3.org/2000/svg">
<path d="M1.84427 0.274V13.576H8.99027V14.746H0.530266V0.274H1.84427ZM12.3384 14.746H11.0244V0.274H12.3384V14.746ZM23.3247 7.24C24.2967 7.528 25.0047 7.984 25.4487 8.608C25.8927 9.22 26.1147 9.946 26.1147 10.786C26.1147 11.974 25.7127 12.928 24.9087 13.648C24.1167 14.38 22.9227 14.746 21.3267 14.746H15.2607V0.274H20.6247C22.2207 0.274 23.4147 0.628 24.2067 1.336C25.0107 2.044 25.4127 2.974 25.4127 4.126C25.4127 4.81 25.2447 5.428 24.9087 5.98C24.5727 6.52 24.0447 6.94 23.3247 7.24ZM16.5747 1.444V6.826H20.6067C21.7947 6.826 22.6767 6.586 23.2527 6.106C23.8407 5.614 24.1347 4.954 24.1347 4.126C24.1347 3.298 23.8407 2.644 23.2527 2.164C22.6767 1.684 21.7947 1.444 20.6067 1.444H16.5747ZM21.3087 13.576C22.4967 13.576 23.3787 13.324 23.9547 12.82C24.5427 12.316 24.8367 11.632 24.8367 10.768C24.8367 9.916 24.5427 9.238 23.9547 8.734C23.3667 8.218 22.4847 7.96 21.3087 7.96H16.5747V13.576H21.3087ZM39.2426 14.746H37.7666L34.3286 8.554C34.2086 8.566 34.0286 8.572 33.7886 8.572H29.8286V14.746H28.5146V0.274H33.7886C35.4806 0.274 36.7586 0.64 37.6226 1.372C38.4986 2.092 38.9366 3.106 38.9366 4.414C38.9366 5.482 38.6546 6.358 38.0906 7.042C37.5386 7.714 36.7106 8.164 35.6066 8.392L39.2426 14.746ZM33.6626 7.384C34.9946 7.384 35.9846 7.144 36.6326 6.664C37.2926 6.172 37.6226 5.422 37.6226 4.414C37.6226 2.434 36.3026 1.444 33.6626 1.444H29.8286V7.384H33.6626ZM53.1346 14.746H51.7846L49.9486 9.958H43.6306L41.8126 14.746H40.4446L46.0066 0.274H47.5906L53.1346 14.746ZM46.7986 1.66L44.0806 8.77H49.4986L46.7986 1.66ZM65.8032 14.746H64.3272L60.8892 8.554C60.7692 8.566 60.5892 8.572 60.3492 8.572H56.3892V14.746H55.0752V0.274H60.3492C62.0412 0.274 63.3192 0.64 64.1832 1.372C65.0592 2.092 65.4972 3.106 65.4972 4.414C65.4972 5.482 65.2152 6.358 64.6512 7.042C64.0992 7.714 63.2712 8.164 62.1672 8.392L65.8032 14.746ZM60.2232 7.384C61.5552 7.384 62.5452 7.144 63.1932 6.664C63.8532 6.172 64.1832 5.422 64.1832 4.414C64.1832 2.434 62.8632 1.444 60.2232 1.444H56.3892V7.384H60.2232ZM76.2426 0.274H77.7186L72.4446 9.058V14.746H71.1306V9.058L65.8386 0.274H67.3146L71.7786 7.78L76.2426 0.274Z" fill="url(#paint0_linear_212_19)"/>
<defs>
<linearGradient id="paint0_linear_212_19" x1="-1" y1="8" x2="78" y2="8" gradientUnits="userSpaceOnUse">
<stop stop-color="#3DB1ED"/>
<stop offset="1" stop-color="#03C75A"/>
</linearGradient>
</defs>
</svg>
